<svg width="268" height="183" viewBox="0 0 268 183" fill="none" xmlns="http://www.w3.org/2000/svg">
<path fill-rule="evenodd" clip-rule="evenodd" d="M137.273 5.51599C128.453 3.43799 119.586 1.469 110.421 0.128998C110.078 0.0739978 109.691 0.055 109.347 0C96.3281 9.613 84.3361 20.227 73.5431 31.633C85.4921 29.875 97.6991 28.762 110.16 28.313C153.679 26.715 195.054 33.848 232.406 47.438C205.464 28.879 172.953 14.25 137.273 5.51599Z" fill="#004688"/>
<path fill-rule="evenodd" clip-rule="evenodd" d="M117.871 101.317C167.129 78.0699 218.699 68.2539 267.355 70.3949C225.464 51.8909 177.39 42.1559 126.566 43.9959C101.511 44.9179 77.312 48.6059 54.394 54.6639C42.957 70.0199 33.515 86.5309 26.339 103.91C37.39 114.778 49.449 125.016 62.425 134.449C79.347 121.93 97.871 110.774 117.871 101.317Z" fill="#F49100"/>
<path fill-rule="evenodd" clip-rule="evenodd" d="M54.394 54.6641C35.336 59.6961 17.132 66.3791 0 74.5161C17.347 96.6171 38.25 116.887 62.406 134.449H62.425C49.449 125.004 37.39 114.778 26.339 103.91C33.515 86.539 42.961 70.0281 54.394 54.6641Z" fill="#FCC681"/>
<path fill-rule="evenodd" clip-rule="evenodd" d="M62.449 134.461C49.468 125.035 37.39 114.778 26.3391 103.91C16.0821 128.731 10.492 155.317 10.41 182.903C25.441 165.246 42.875 148.969 62.449 134.461Z" fill="#FCC681"/>
</svg>
