<svg width="530" height="133" viewBox="0 0 530 133" fill="none" xmlns="http://www.w3.org/2000/svg">
<path fill-rule="evenodd" clip-rule="evenodd" d="M529.66 106.641C529.058 106.657 528.461 106.676 527.84 106.676C502.847 106.676 484.73 90.68 484.73 68.641V68.149C484.73 47.063 502.89 30.551 526.062 30.551C527.304 30.551 528.504 30.594 529.66 30.6609V5.33597C528.59 5.29297 527.476 5.29297 526.363 5.29297C480.961 5.29297 446.695 32.5 446.695 68.641V69.102C446.695 104.352 481.433 131.969 525.785 131.969C527.133 131.969 528.375 131.934 529.66 131.903V106.641Z" fill="#004688"/>
<path fill-rule="evenodd" clip-rule="evenodd" d="M70.644 53.575C43.851 47.856 40.082 45.114 40.082 36.645V36.262C40.082 30.016 46.957 25.051 60.008 25.051C66.668 25.051 75.367 26.86 81.469 29.118V2.10999C75.793 1.12899 67.078 0 60.461 0C28.785 0 6.22202 15.473 6.22202 38.871V39.227C6.22202 64.809 26.344 71.981 57.578 78.61C83.48 84.133 85.922 87.817 85.922 95.004V95.368C85.922 102.918 77.504 107.512 63.554 107.512C45.844 107.512 34.105 101.442 20.164 91.864L0 111.934C18.601 125.735 39.418 132.555 62.89 132.555C96.332 132.555 119.804 118.196 119.804 92.606V92.239C119.804 69.774 102.07 60.387 70.644 53.575Z" fill="#004688"/>
<path fill-rule="evenodd" clip-rule="evenodd" d="M148.758 64.977C151.433 51.379 160.578 42.493 174.629 42.493C188.871 42.493 197.801 51.563 199.812 64.977H148.758ZM174.629 18.453C139.847 18.453 115.562 43.297 115.562 73.438V73.825C115.562 106.149 142.074 128.422 177.969 128.422C178.996 128.422 182.336 128.286 183.367 128.262V104.18C182.511 104.211 179.297 104.371 178.398 104.371C163.234 104.371 152.547 97.297 149.187 83.684H231.617C231.808 80.911 232.043 79.145 232.043 76.18V75.805C232.043 45.844 214.504 18.453 174.629 18.453Z" fill="#004688"/>
<path fill-rule="evenodd" clip-rule="evenodd" d="M339.527 70.547C339.527 41.965 322.054 19.661 285.09 19.661C248.086 19.661 230.609 41.965 230.609 70.547V126.473H264.855V68.481C265.476 57.899 269.629 45.407 285.09 45.407C300.511 45.407 305.008 57.899 305.609 68.481V126.473H339.527V70.547Z" fill="#004688"/>
<path fill-rule="evenodd" clip-rule="evenodd" d="M395.211 19.055C393.711 19.055 388.531 19.075 387.117 19.118V44.676C393.711 44.739 402.75 45.852 406.777 47.977C412.691 51.09 415.761 56.336 415.906 63.442C407.836 62.496 398.691 61.856 390.761 61.649C358.414 60.821 342.422 71.516 339.211 88.633C339.148 88.953 339.09 89.278 339.035 89.606C339.019 89.715 339 89.825 338.984 89.938C338.73 91.571 338.59 93.289 338.59 95.11V95.496C338.59 116.418 357.09 127.844 379.578 127.844C396.09 127.844 407.461 122.5 415.683 114.426V126.602H448.449V64.571C448.449 35.981 432.176 19.055 395.211 19.055ZM416.023 88.883C413.074 104.329 397.133 106.641 393.519 106.832C367.738 108.192 366.824 90.563 375.488 85.192C387.14 77.969 416.125 82.032 416.125 82.032C416.125 83.075 416.402 85.707 416.023 88.883Z" fill="#004688"/>
</svg>
